<mxfile host="app.diagrams.net" modified="2024-06-14T04:38:34.821Z" agent="Mozilla/5.0 (Windows NT 10.0; Win64; x64) AppleWebKit/537.36 (KHTML, like Gecko) Chrome/125.0.0.0 Safari/537.36 Edg/125.0.0.0" etag="orcNwDWZnGRImoR1bOBB" version="24.5.4" type="device">
  <diagram name="Страница — 1" id="MT_QKy6GOOPgPqeHeo9j">
    <mxGraphModel dx="5111" dy="4966" grid="1" gridSize="10" guides="1" tooltips="1" connect="1" arrows="1" fold="1" page="1" pageScale="1" pageWidth="2339" pageHeight="3300" math="0" shadow="0">
      <root>
        <mxCell id="0" />
        <mxCell id="1" parent="0" />
        <mxCell id="pV3P2RNTyMU5dQeBJUng-68" value="Start" style="html=1;overflow=block;blockSpacing=1;whiteSpace=wrap;fontSize=23.3;align=center;spacing=3.8;verticalAlign=middle;strokeColor=#unset;fillOpacity=100;rounded=1;absoluteArcSize=1;arcSize=9;fillColor=#d7faf5;strokeWidth=NaN;lucidId=huNK-i~51UBm;" parent="1" vertex="1">
          <mxGeometry x="-765" y="-3155" width="120" height="60" as="geometry" />
        </mxCell>
        <mxCell id="pV3P2RNTyMU5dQeBJUng-69" value=" Открываем сериал порт" style="html=1;overflow=block;blockSpacing=1;whiteSpace=wrap;fontSize=23.3;spacing=9;rounded=1;absoluteArcSize=1;arcSize=9;strokeWidth=NaN;lucidId=kvNKT_QAm0P7;" parent="1" vertex="1">
          <mxGeometry x="-570" y="-3190" width="240" height="145" as="geometry" />
        </mxCell>
        <mxCell id="pV3P2RNTyMU5dQeBJUng-70" value="" style="html=1;jettySize=18;whiteSpace=wrap;fontSize=13;strokeColor=#3a414a;strokeOpacity=100;strokeWidth=0.8;rounded=1;arcSize=12;edgeStyle=orthogonalEdgeStyle;startArrow=none;endArrow=block;endFill=1;exitX=1.003;exitY=0.5;exitPerimeter=0;entryX=-0.003;entryY=0.5;entryPerimeter=0;lucidId=YxNKXiV3yk3m;" parent="1" source="pV3P2RNTyMU5dQeBJUng-69" target="pV3P2RNTyMU5dQeBJUng-71" edge="1">
          <mxGeometry width="100" height="100" relative="1" as="geometry">
            <Array as="points" />
          </mxGeometry>
        </mxCell>
        <mxCell id="pV3P2RNTyMU5dQeBJUng-71" value="Устанавливаем автоматический опрос кнопки" style="html=1;overflow=block;blockSpacing=1;whiteSpace=wrap;fontSize=24;spacing=9;rounded=1;absoluteArcSize=1;arcSize=9;strokeWidth=NaN;lucidId=YxNKBu2S_IFn;" parent="1" vertex="1">
          <mxGeometry x="-270" y="-3190" width="240" height="145" as="geometry" />
        </mxCell>
        <mxCell id="pV3P2RNTyMU5dQeBJUng-72" value="выделяем Flash память под &amp;nbsp;данные" style="html=1;overflow=block;blockSpacing=1;whiteSpace=wrap;shape=internalStorage;dx=10;dy=10;fontSize=24;spacingLeft=12.8;spacingTop=12.8;spacing=3.8;rounded=1;absoluteArcSize=1;arcSize=9;strokeWidth=NaN;" parent="1" vertex="1">
          <mxGeometry x="30" y="-3190" width="240" height="145" as="geometry" />
        </mxCell>
        <mxCell id="pV3P2RNTyMU5dQeBJUng-73" value="Инициализируем дисплей" style="html=1;overflow=block;blockSpacing=1;whiteSpace=wrap;fontSize=24;spacing=9;rounded=1;absoluteArcSize=1;arcSize=9;strokeWidth=NaN;lucidId=HBNKn5bvjqHD;" parent="1" vertex="1">
          <mxGeometry x="330" y="-3190" width="240" height="145" as="geometry" />
        </mxCell>
        <mxCell id="pV3P2RNTyMU5dQeBJUng-74" value="" style="html=1;jettySize=18;whiteSpace=wrap;fontSize=13;strokeColor=#3a414a;strokeOpacity=100;strokeWidth=0.8;rounded=1;arcSize=12;edgeStyle=orthogonalEdgeStyle;startArrow=none;endArrow=block;endFill=1;exitX=1.003;exitY=0.506;exitPerimeter=0;entryX=-0.003;entryY=0.506;entryPerimeter=0;lucidId=QCNKYYWRzVwB;" parent="1" source="pV3P2RNTyMU5dQeBJUng-72" target="pV3P2RNTyMU5dQeBJUng-73" edge="1">
          <mxGeometry width="100" height="100" relative="1" as="geometry">
            <Array as="points" />
          </mxGeometry>
        </mxCell>
        <mxCell id="pV3P2RNTyMU5dQeBJUng-75" value="" style="html=1;jettySize=18;whiteSpace=wrap;fontSize=13;strokeColor=#3a414a;strokeOpacity=100;strokeWidth=0.8;rounded=1;arcSize=12;edgeStyle=orthogonalEdgeStyle;startArrow=none;endArrow=block;endFill=1;exitX=1.003;exitY=0.5;exitPerimeter=0;entryX=-0.003;entryY=0.5;entryPerimeter=0;lucidId=cDNKjXfKy2Uf;" parent="1" source="pV3P2RNTyMU5dQeBJUng-73" target="pV3P2RNTyMU5dQeBJUng-76" edge="1">
          <mxGeometry width="100" height="100" relative="1" as="geometry">
            <Array as="points" />
          </mxGeometry>
        </mxCell>
        <mxCell id="pV3P2RNTyMU5dQeBJUng-76" value="Подключаем веб-интерфейс" style="html=1;overflow=block;blockSpacing=1;whiteSpace=wrap;fontSize=24;spacing=9;rounded=1;absoluteArcSize=1;arcSize=9;strokeWidth=NaN;lucidId=cDNKdIMetGzl;" parent="1" vertex="1">
          <mxGeometry x="630" y="-3190" width="240" height="145" as="geometry" />
        </mxCell>
        <mxCell id="pV3P2RNTyMU5dQeBJUng-77" value="&lt;div style=&quot;display: flex; justify-content: center; text-align: center; align-items: baseline; font-size: 0; line-height: 1.25;margin-left: 12.8px;margin-top: 12.8px;margin-top: -2px;&quot;&gt;&lt;span&gt;&lt;span style=&quot;font-size:24px;&quot;&gt;&lt;span style=&quot;font-size:24px;&quot;&gt;Передаём в переменную ssid данные с адреса &lt;/span&gt;&lt;span style=&quot;font-size:24px;font-weight: bold;&quot;&gt;0&lt;/span&gt;&lt;/span&gt;&lt;/span&gt;&lt;/div&gt;" style="html=1;overflow=block;blockSpacing=1;whiteSpace=wrap;shape=internalStorage;dx=10;dy=10;fontSize=13;spacing=3.8;rounded=1;absoluteArcSize=1;arcSize=9;strokeWidth=NaN;" parent="1" vertex="1">
          <mxGeometry x="630" y="-2982" width="240" height="158" as="geometry" />
        </mxCell>
        <mxCell id="pV3P2RNTyMU5dQeBJUng-78" value="&lt;div style=&quot;display: flex; justify-content: center; text-align: center; align-items: baseline; font-size: 0; line-height: 1.25;margin-left: 12.8px;margin-top: 12.8px;margin-top: -2px;&quot;&gt;&lt;span&gt;&lt;span style=&quot;font-size:24px;&quot;&gt;&lt;span style=&quot;font-size:24px;&quot;&gt;Передаём в переменную pass данные с адреса &lt;/span&gt;&lt;span style=&quot;font-size:24px;font-weight: bold;&quot;&gt;32&lt;/span&gt;&lt;/span&gt;&lt;/span&gt;&lt;/div&gt;" style="html=1;overflow=block;blockSpacing=1;whiteSpace=wrap;shape=internalStorage;dx=10;dy=10;fontSize=13;spacing=3.8;rounded=1;absoluteArcSize=1;arcSize=9;strokeWidth=NaN;" parent="1" vertex="1">
          <mxGeometry x="330" y="-2982" width="240" height="158" as="geometry" />
        </mxCell>
        <mxCell id="pV3P2RNTyMU5dQeBJUng-79" value="&lt;div style=&quot;display: flex; justify-content: center; text-align: center; align-items: baseline; font-size: 0; line-height: 1.25;margin-left: 12.8px;margin-top: 12.8px;margin-top: -2px;&quot;&gt;&lt;span&gt;&lt;span style=&quot;font-size:24px;&quot;&gt;&lt;span style=&quot;font-size:24px;&quot;&gt;Передаём в переменную mqtt_server данные с адреса &lt;/span&gt;&lt;span style=&quot;font-size:24px;font-weight: bold;&quot;&gt;64&lt;/span&gt;&lt;/span&gt;&lt;/span&gt;&lt;/div&gt;" style="html=1;overflow=block;blockSpacing=1;whiteSpace=wrap;shape=internalStorage;dx=10;dy=10;fontSize=13;spacing=3.8;rounded=1;absoluteArcSize=1;arcSize=9;strokeWidth=NaN;" parent="1" vertex="1">
          <mxGeometry x="15" y="-2980" width="270" height="155" as="geometry" />
        </mxCell>
        <mxCell id="pV3P2RNTyMU5dQeBJUng-80" value="&lt;div style=&quot;display: flex; justify-content: center; text-align: center; align-items: baseline; font-size: 0; line-height: 1.25;margin-left: 12.8px;margin-top: 12.8px;margin-top: -2px;&quot;&gt;&lt;span&gt;&lt;span style=&quot;font-size:24px;&quot;&gt;&lt;span style=&quot;font-size:24px;&quot;&gt;Передаём в переменную mqtt_port данные с адреса &lt;/span&gt;&lt;span style=&quot;font-size:24px;font-weight: bold;&quot;&gt;128&lt;/span&gt;&lt;/span&gt;&lt;/span&gt;&lt;/div&gt;" style="html=1;overflow=block;blockSpacing=1;whiteSpace=wrap;shape=internalStorage;dx=10;dy=10;fontSize=13;spacing=3.8;rounded=1;absoluteArcSize=1;arcSize=9;strokeWidth=NaN;" parent="1" vertex="1">
          <mxGeometry x="-270" y="-2982" width="240" height="158" as="geometry" />
        </mxCell>
        <mxCell id="pV3P2RNTyMU5dQeBJUng-81" value="" style="html=1;jettySize=18;whiteSpace=wrap;fontSize=13;strokeColor=#3a414a;strokeOpacity=100;strokeWidth=0.8;rounded=1;arcSize=12;edgeStyle=orthogonalEdgeStyle;startArrow=none;endArrow=block;endFill=1;exitX=-0.003;exitY=0.5;exitPerimeter=0;entryX=1.003;entryY=0.5;entryPerimeter=0;lucidId=7LNKsAyk4kLz;" parent="1" source="pV3P2RNTyMU5dQeBJUng-77" target="pV3P2RNTyMU5dQeBJUng-78" edge="1">
          <mxGeometry width="100" height="100" relative="1" as="geometry">
            <Array as="points" />
          </mxGeometry>
        </mxCell>
        <mxCell id="pV3P2RNTyMU5dQeBJUng-82" value="" style="html=1;jettySize=18;whiteSpace=wrap;fontSize=13;strokeColor=#3a414a;strokeOpacity=100;strokeWidth=0.8;rounded=1;arcSize=12;edgeStyle=orthogonalEdgeStyle;startArrow=none;endArrow=block;endFill=1;exitX=-0.003;exitY=0.497;exitPerimeter=0;entryX=1.003;entryY=0.497;entryPerimeter=0;lucidId=_LNKdDTNUb7E;" parent="1" source="pV3P2RNTyMU5dQeBJUng-78" target="pV3P2RNTyMU5dQeBJUng-79" edge="1">
          <mxGeometry width="100" height="100" relative="1" as="geometry">
            <Array as="points" />
          </mxGeometry>
        </mxCell>
        <mxCell id="pV3P2RNTyMU5dQeBJUng-83" value="" style="html=1;jettySize=18;whiteSpace=wrap;fontSize=13;strokeColor=#3a414a;strokeOpacity=100;strokeWidth=0.8;rounded=1;arcSize=12;edgeStyle=orthogonalEdgeStyle;startArrow=none;endArrow=block;endFill=1;exitX=-0.003;exitY=0.5;exitPerimeter=0;entryX=1.003;entryY=0.5;entryPerimeter=0;lucidId=~LNKRGXyszqJ;" parent="1" source="pV3P2RNTyMU5dQeBJUng-79" target="pV3P2RNTyMU5dQeBJUng-80" edge="1">
          <mxGeometry width="100" height="100" relative="1" as="geometry">
            <Array as="points" />
          </mxGeometry>
        </mxCell>
        <mxCell id="pV3P2RNTyMU5dQeBJUng-84" value="" style="html=1;jettySize=18;whiteSpace=wrap;fontSize=13;strokeColor=#3a414a;strokeOpacity=100;strokeWidth=0.8;rounded=1;arcSize=12;edgeStyle=orthogonalEdgeStyle;startArrow=none;endArrow=block;endFill=1;exitX=0.5;exitY=1.005;exitPerimeter=0;entryX=0.5;entryY=-0.005;entryPerimeter=0;lucidId=cMNKakkFyH.c;" parent="1" source="pV3P2RNTyMU5dQeBJUng-76" target="pV3P2RNTyMU5dQeBJUng-77" edge="1">
          <mxGeometry width="100" height="100" relative="1" as="geometry">
            <Array as="points" />
          </mxGeometry>
        </mxCell>
        <mxCell id="pV3P2RNTyMU5dQeBJUng-85" value="Передаём в переменную timer текущее время millis" style="html=1;overflow=block;blockSpacing=1;whiteSpace=wrap;fontSize=23.3;spacing=9;rounded=1;absoluteArcSize=1;arcSize=9;strokeWidth=NaN;lucidId=BNNKINjm.YTU;" parent="1" vertex="1">
          <mxGeometry x="-570" y="-2980" width="240" height="155" as="geometry" />
        </mxCell>
        <mxCell id="pV3P2RNTyMU5dQeBJUng-86" value="" style="html=1;jettySize=18;whiteSpace=wrap;fontSize=13;strokeColor=#3a414a;strokeOpacity=100;strokeWidth=0.8;rounded=1;arcSize=12;edgeStyle=orthogonalEdgeStyle;startArrow=none;endArrow=block;endFill=1;exitX=1.006;exitY=0.5;exitPerimeter=0;entryX=-0.003;entryY=0.448;entryPerimeter=0;lucidId=fONKadDLbznk;" parent="1" source="pV3P2RNTyMU5dQeBJUng-68" target="pV3P2RNTyMU5dQeBJUng-69" edge="1">
          <mxGeometry width="100" height="100" relative="1" as="geometry">
            <Array as="points" />
          </mxGeometry>
        </mxCell>
        <mxCell id="pV3P2RNTyMU5dQeBJUng-87" value="" style="html=1;jettySize=18;whiteSpace=wrap;fontSize=13;strokeColor=#3a414a;strokeOpacity=100;strokeWidth=0.8;rounded=1;arcSize=12;edgeStyle=orthogonalEdgeStyle;startArrow=none;endArrow=block;endFill=1;exitX=1.003;exitY=0.5;exitPerimeter=0;entryX=-0.003;entryY=0.5;entryPerimeter=0;lucidId=jONK552K9mzH;" parent="1" source="pV3P2RNTyMU5dQeBJUng-71" target="pV3P2RNTyMU5dQeBJUng-72" edge="1">
          <mxGeometry width="100" height="100" relative="1" as="geometry">
            <Array as="points" />
          </mxGeometry>
        </mxCell>
        <mxCell id="pV3P2RNTyMU5dQeBJUng-88" value="" style="html=1;jettySize=18;whiteSpace=wrap;fontSize=13;strokeColor=#3a414a;strokeOpacity=100;strokeWidth=0.8;rounded=1;arcSize=12;edgeStyle=orthogonalEdgeStyle;startArrow=none;endArrow=block;endFill=1;exitX=-0.003;exitY=0.5;exitPerimeter=0;entryX=1.003;entryY=0.495;entryPerimeter=0;lucidId=oONKDoz1eu5l;" parent="1" source="pV3P2RNTyMU5dQeBJUng-80" target="pV3P2RNTyMU5dQeBJUng-85" edge="1">
          <mxGeometry width="100" height="100" relative="1" as="geometry">
            <Array as="points" />
          </mxGeometry>
        </mxCell>
        <mxCell id="pV3P2RNTyMU5dQeBJUng-89" value="Выводим на дисплей надпись &quot;Launch. . .&quot;" style="html=1;overflow=block;blockSpacing=1;whiteSpace=wrap;fontSize=23.3;spacing=9;rounded=1;absoluteArcSize=1;arcSize=9;strokeWidth=NaN;lucidId=cQNKb1h-4ARh;" parent="1" vertex="1">
          <mxGeometry x="-855" y="-2980" width="240" height="155" as="geometry" />
        </mxCell>
        <mxCell id="pV3P2RNTyMU5dQeBJUng-90" value="Создание кастомных символов для дисплея" style="html=1;overflow=block;blockSpacing=1;whiteSpace=wrap;fontSize=23.3;spacing=9;rounded=1;absoluteArcSize=1;arcSize=9;strokeWidth=NaN;lucidId=8RNKm5_nbcWO;" parent="1" vertex="1">
          <mxGeometry x="-1140" y="-2978" width="240" height="155" as="geometry" />
        </mxCell>
        <mxCell id="pV3P2RNTyMU5dQeBJUng-91" value="Если не прошло 1,5 секунды" style="html=1;overflow=block;blockSpacing=1;whiteSpace=wrap;rhombus;fontSize=16.7;spacing=3.8;rounded=1;absoluteArcSize=1;arcSize=9;strokeWidth=NaN;lucidId=8TNKSBAZ_OIS;" parent="1" vertex="1">
          <mxGeometry x="-1140" y="-2780" width="240" height="155" as="geometry" />
        </mxCell>
        <mxCell id="pV3P2RNTyMU5dQeBJUng-92" value="" style="html=1;jettySize=18;whiteSpace=wrap;fontSize=13;strokeColor=#3a414a;strokeOpacity=100;strokeWidth=0.8;rounded=1;arcSize=12;edgeStyle=orthogonalEdgeStyle;startArrow=none;endArrow=block;endFill=1;exitX=-0.003;exitY=0.5;exitPerimeter=0;entryX=1.003;entryY=0.5;entryPerimeter=0;lucidId=ZWNKgrqy~i69;" parent="1" source="pV3P2RNTyMU5dQeBJUng-85" target="pV3P2RNTyMU5dQeBJUng-89" edge="1">
          <mxGeometry width="100" height="100" relative="1" as="geometry">
            <Array as="points" />
          </mxGeometry>
        </mxCell>
        <mxCell id="pV3P2RNTyMU5dQeBJUng-93" value="" style="html=1;jettySize=18;whiteSpace=wrap;fontSize=13;strokeColor=#3a414a;strokeOpacity=100;strokeWidth=0.8;rounded=1;arcSize=12;edgeStyle=orthogonalEdgeStyle;startArrow=none;endArrow=block;endFill=1;exitX=-0.003;exitY=0.5;exitPerimeter=0;entryX=1.003;entryY=0.49;entryPerimeter=0;lucidId=lXNKo3hbGXgI;" parent="1" source="pV3P2RNTyMU5dQeBJUng-89" target="pV3P2RNTyMU5dQeBJUng-90" edge="1">
          <mxGeometry width="100" height="100" relative="1" as="geometry">
            <Array as="points" />
          </mxGeometry>
        </mxCell>
        <mxCell id="pV3P2RNTyMU5dQeBJUng-94" value="" style="html=1;jettySize=18;whiteSpace=wrap;fontSize=13;strokeColor=#3a414a;strokeOpacity=100;strokeWidth=0.8;rounded=1;arcSize=12;edgeStyle=orthogonalEdgeStyle;startArrow=none;endArrow=block;endFill=1;exitX=0.5;exitY=1.005;exitPerimeter=0;lucidId=yYNKBY23~lxa;" parent="1" source="pV3P2RNTyMU5dQeBJUng-90" edge="1">
          <mxGeometry width="100" height="100" relative="1" as="geometry">
            <Array as="points" />
            <mxPoint x="-1020" y="-2779" as="targetPoint" />
          </mxGeometry>
        </mxCell>
        <mxCell id="pV3P2RNTyMU5dQeBJUng-144" style="edgeStyle=orthogonalEdgeStyle;rounded=0;orthogonalLoop=1;jettySize=auto;html=1;exitX=0;exitY=0.5;exitDx=0;exitDy=0;entryX=0.5;entryY=0;entryDx=0;entryDy=0;fontFamily=Helvetica;fontSize=23.3;fontColor=default;fillColor=#60a917;strokeColor=#2D7600;fontStyle=1" parent="1" source="pV3P2RNTyMU5dQeBJUng-95" target="pV3P2RNTyMU5dQeBJUng-116" edge="1">
          <mxGeometry relative="1" as="geometry">
            <Array as="points">
              <mxPoint x="-1160" y="-2507" />
              <mxPoint x="-1160" y="-2420" />
              <mxPoint x="375" y="-2420" />
            </Array>
          </mxGeometry>
        </mxCell>
        <mxCell id="pV3P2RNTyMU5dQeBJUng-145" value="Yes" style="edgeLabel;html=1;align=center;verticalAlign=middle;resizable=0;points=[];rounded=1;strokeColor=#unset;strokeWidth=NaN;spacing=3.8;arcSize=9;fontFamily=Helvetica;fontSize=13;fontColor=default;fillColor=#d7faf5;" parent="pV3P2RNTyMU5dQeBJUng-144" vertex="1" connectable="0">
          <mxGeometry x="-0.1287" y="-8" relative="1" as="geometry">
            <mxPoint y="-8" as="offset" />
          </mxGeometry>
        </mxCell>
        <mxCell id="pV3P2RNTyMU5dQeBJUng-95" value="Если кнопку зажать" style="html=1;overflow=block;blockSpacing=1;whiteSpace=wrap;rhombus;fontSize=16.7;spacing=3.8;rounded=1;absoluteArcSize=1;arcSize=9;strokeWidth=NaN;lucidId=xZNKtUaJ_DuR;" parent="1" vertex="1">
          <mxGeometry x="-1140" y="-2585" width="240" height="155" as="geometry" />
        </mxCell>
        <mxCell id="pV3P2RNTyMU5dQeBJUng-96" value="" style="html=1;jettySize=18;whiteSpace=wrap;fontSize=13.3;fontColor=#333333;fontStyle=1;strokeColor=#2D7600;strokeOpacity=100;strokeWidth=0.8;rounded=1;arcSize=12;edgeStyle=orthogonalEdgeStyle;startArrow=none;endArrow=block;endFill=1;exitX=0.007;exitY=0.5;exitPerimeter=0;entryX=0.499;entryY=0.004;entryPerimeter=0;lucidId=0ZNKptolUiwc;fillColor=#60a917;" parent="1" source="pV3P2RNTyMU5dQeBJUng-91" target="pV3P2RNTyMU5dQeBJUng-95" edge="1">
          <mxGeometry width="100" height="100" relative="1" as="geometry">
            <Array as="points" />
          </mxGeometry>
        </mxCell>
        <mxCell id="pV3P2RNTyMU5dQeBJUng-97" value="Yes" style="text;html=1;resizable=0;labelBackgroundColor=default;align=center;verticalAlign=middle;fontStyle=1;fontColor=#333333;fontSize=13;" parent="pV3P2RNTyMU5dQeBJUng-96" vertex="1">
          <mxGeometry relative="1" as="geometry" />
        </mxCell>
        <mxCell id="pV3P2RNTyMU5dQeBJUng-100" value="" style="html=1;jettySize=18;whiteSpace=wrap;fontSize=13.3;fontColor=#333333;fontStyle=1;strokeColor=#3a414a;strokeOpacity=100;strokeWidth=0.8;rounded=1;arcSize=12;edgeStyle=orthogonalEdgeStyle;startArrow=none;endArrow=block;endFill=1;exitX=0.5;exitY=0.996;exitPerimeter=0;entryX=0.5;entryY=0.004;entryPerimeter=0;lucidId=~hOKzVEj1Z~V;" parent="1" source="pV3P2RNTyMU5dQeBJUng-95" target="pV3P2RNTyMU5dQeBJUng-91" edge="1">
          <mxGeometry width="100" height="100" relative="1" as="geometry">
            <Array as="points">
              <mxPoint x="-1020" y="-2401" />
              <mxPoint x="-832" y="-2401" />
              <mxPoint x="-832" y="-2809" />
              <mxPoint x="-1020" y="-2809" />
            </Array>
          </mxGeometry>
        </mxCell>
        <mxCell id="pV3P2RNTyMU5dQeBJUng-102" value="&lt;div style=&quot;display: flex; justify-content: center; text-align: center; align-items: baseline; font-size: 0; line-height: 1.25;margin-top: -2px;&quot;&gt;&lt;span&gt;&lt;span style=&quot;font-size:23.3px;&quot;&gt;&lt;span style=&quot;font-size:23.3px;&quot;&gt;Выставляем курсор на &lt;/span&gt;&lt;span style=&quot;font-size:23.3px;font-weight: bold;&quot;&gt;0; 0 &lt;/span&gt;&lt;span style=&quot;font-size:23.3px;&quot;&gt;и выводим &quot;&lt;/span&gt;&lt;span style=&quot;font-size:23.3px;font-weight: bold;&quot;&gt;Connecting to WiFi&lt;/span&gt;&lt;span style=&quot;font-size:23.3px;&quot;&gt;&quot;&lt;/span&gt;&lt;/span&gt;&lt;/span&gt;&lt;/div&gt;" style="html=1;overflow=block;blockSpacing=1;whiteSpace=wrap;fontSize=13;spacing=9;rounded=1;absoluteArcSize=1;arcSize=9;strokeWidth=NaN;lucidId=ojOKy3f9wQCu;" parent="1" vertex="1">
          <mxGeometry x="-690" y="-2772" width="270" height="130" as="geometry" />
        </mxCell>
        <mxCell id="pV3P2RNTyMU5dQeBJUng-105" value="Переводим esp в ремиж подключения и подключаемся к WiFi" style="html=1;overflow=block;blockSpacing=1;whiteSpace=wrap;fontSize=23.3;spacing=9;rounded=1;absoluteArcSize=1;arcSize=9;strokeWidth=NaN;lucidId=emOKF.ThHgSQ;" parent="1" vertex="1">
          <mxGeometry x="-375" y="-2772" width="240" height="130" as="geometry" />
        </mxCell>
        <mxCell id="pV3P2RNTyMU5dQeBJUng-106" value="" style="html=1;jettySize=18;whiteSpace=wrap;fontSize=13;strokeColor=#3a414a;strokeOpacity=100;strokeWidth=0.8;rounded=1;arcSize=12;edgeStyle=orthogonalEdgeStyle;startArrow=none;endArrow=block;endFill=1;exitX=1.003;exitY=0.5;exitPerimeter=0;entryX=-0.003;entryY=0.5;entryPerimeter=0;lucidId=wnOKi3Yc50Jw;" parent="1" source="pV3P2RNTyMU5dQeBJUng-102" target="pV3P2RNTyMU5dQeBJUng-105" edge="1">
          <mxGeometry width="100" height="100" relative="1" as="geometry">
            <Array as="points" />
          </mxGeometry>
        </mxCell>
        <mxCell id="pV3P2RNTyMU5dQeBJUng-107" value="&lt;div style=&quot;display: flex; justify-content: center; text-align: center; align-items: baseline; font-size: 0; line-height: 1.25;margin-top: -2px;&quot;&gt;&lt;span&gt;&lt;span style=&quot;font-size:23.3px;&quot;&gt;&lt;span style=&quot;font-size:23.3px;&quot;&gt;Обновляем переменную &lt;/span&gt;&lt;span style=&quot;font-size:23.3px;font-weight: bold;&quot;&gt;timer &lt;/span&gt;&lt;span style=&quot;font-size:23.3px;&quot;&gt;на текущее время микроконтроллера&lt;/span&gt;&lt;/span&gt;&lt;/span&gt;&lt;/div&gt;" style="html=1;overflow=block;blockSpacing=1;whiteSpace=wrap;fontSize=13;spacing=9;rounded=1;absoluteArcSize=1;arcSize=9;strokeWidth=NaN;lucidId=1nOKLTDAAxma;" parent="1" vertex="1">
          <mxGeometry x="-90" y="-2772" width="240" height="130" as="geometry" />
        </mxCell>
        <mxCell id="pV3P2RNTyMU5dQeBJUng-108" value="" style="html=1;jettySize=18;whiteSpace=wrap;fontSize=13;strokeColor=#3a414a;strokeOpacity=100;strokeWidth=0.8;rounded=1;arcSize=12;edgeStyle=orthogonalEdgeStyle;startArrow=none;endArrow=block;endFill=1;exitX=1.003;exitY=0.5;exitPerimeter=0;entryX=-0.003;entryY=0.5;entryPerimeter=0;lucidId=3oOKz5D9rb5C;" parent="1" source="pV3P2RNTyMU5dQeBJUng-105" target="pV3P2RNTyMU5dQeBJUng-107" edge="1">
          <mxGeometry width="100" height="100" relative="1" as="geometry">
            <Array as="points" />
          </mxGeometry>
        </mxCell>
        <mxCell id="pV3P2RNTyMU5dQeBJUng-109" value="Если WiFi не подключен" style="html=1;overflow=block;blockSpacing=1;whiteSpace=wrap;rhombus;fontSize=16.7;spacing=3.8;rounded=1;absoluteArcSize=1;arcSize=9;strokeWidth=NaN;lucidId=_oOKDy8q7pu4;" parent="1" vertex="1">
          <mxGeometry x="255" y="-2785" width="240" height="155" as="geometry" />
        </mxCell>
        <mxCell id="pV3P2RNTyMU5dQeBJUng-110" value="" style="html=1;jettySize=18;whiteSpace=wrap;fontSize=13;strokeColor=#3a414a;strokeOpacity=100;strokeWidth=0.8;rounded=1;arcSize=12;edgeStyle=orthogonalEdgeStyle;startArrow=none;endArrow=block;endFill=1;exitX=1.003;exitY=0.5;exitPerimeter=0;entryX=0.5;entryY=0.004;entryPerimeter=0;lucidId=ppOK~Jo3MTBD;" parent="1" source="pV3P2RNTyMU5dQeBJUng-107" target="pV3P2RNTyMU5dQeBJUng-109" edge="1">
          <mxGeometry width="100" height="100" relative="1" as="geometry">
            <Array as="points" />
          </mxGeometry>
        </mxCell>
        <mxCell id="pV3P2RNTyMU5dQeBJUng-111" value="Если вышел TimeOut 15 сек. или зажать кнопку " style="html=1;overflow=block;blockSpacing=1;whiteSpace=wrap;rhombus;fontSize=16.7;spacing=3.8;rounded=1;absoluteArcSize=1;arcSize=9;strokeWidth=NaN;lucidId=6pOKf0QuYKBA;" parent="1" vertex="1">
          <mxGeometry x="255" y="-2590" width="240" height="155" as="geometry" />
        </mxCell>
        <mxCell id="pV3P2RNTyMU5dQeBJUng-112" value="" style="html=1;jettySize=18;whiteSpace=wrap;fontSize=13.3;fontColor=#333333;fontStyle=1;strokeColor=#2D7600;strokeOpacity=100;strokeWidth=0.8;rounded=1;arcSize=12;edgeStyle=orthogonalEdgeStyle;startArrow=none;endArrow=block;endFill=1;exitX=0.007;exitY=0.5;exitPerimeter=0;entryX=0.499;entryY=0.004;entryPerimeter=0;lucidId=pqOKU5gI8-28;fillColor=#60a917;" parent="1" source="pV3P2RNTyMU5dQeBJUng-109" target="pV3P2RNTyMU5dQeBJUng-111" edge="1">
          <mxGeometry width="100" height="100" relative="1" as="geometry">
            <Array as="points" />
          </mxGeometry>
        </mxCell>
        <mxCell id="pV3P2RNTyMU5dQeBJUng-113" value="Yes" style="text;html=1;resizable=0;labelBackgroundColor=default;align=center;verticalAlign=middle;fontStyle=1;fontColor=#333333;fontSize=13;" parent="pV3P2RNTyMU5dQeBJUng-112" vertex="1">
          <mxGeometry relative="1" as="geometry" />
        </mxCell>
        <mxCell id="pV3P2RNTyMU5dQeBJUng-114" value="" style="html=1;jettySize=18;whiteSpace=wrap;fontSize=13.3;fontColor=#333333;fontStyle=1;strokeColor=#B20000;strokeOpacity=100;strokeWidth=0.8;rounded=1;arcSize=12;edgeStyle=orthogonalEdgeStyle;startArrow=none;endArrow=block;endFill=1;exitX=0.993;exitY=0.5;exitPerimeter=0;lucidId=GqOKzh7EgJBH;fillColor=#e51400;entryX=0.5;entryY=0;entryDx=0;entryDy=0;" parent="1" target="C9ka2wE4FZqFicosQLE0-1" edge="1">
          <mxGeometry width="100" height="100" relative="1" as="geometry">
            <Array as="points">
              <mxPoint x="1070" y="-2709" />
              <mxPoint x="1070" y="-1645" />
              <mxPoint x="-684" y="-1645" />
            </Array>
            <mxPoint x="640" y="-2709" as="targetPoint" />
            <mxPoint x="493.3199999999997" y="-2708.76" as="sourcePoint" />
          </mxGeometry>
        </mxCell>
        <mxCell id="pV3P2RNTyMU5dQeBJUng-115" value="No" style="text;html=1;resizable=0;labelBackgroundColor=default;align=center;verticalAlign=middle;fontStyle=1;fontColor=#333333;fontSize=13;" parent="pV3P2RNTyMU5dQeBJUng-114" vertex="1">
          <mxGeometry relative="1" as="geometry">
            <mxPoint x="-413" y="-1062" as="offset" />
          </mxGeometry>
        </mxCell>
        <mxCell id="pV3P2RNTyMU5dQeBJUng-116" value="Отключаемся от WiFi " style="html=1;overflow=block;blockSpacing=1;whiteSpace=wrap;fontSize=23.3;spacing=9;rounded=1;absoluteArcSize=1;arcSize=9;strokeWidth=NaN;lucidId=FrOKCYGJqRCP;" parent="1" vertex="1">
          <mxGeometry x="255" y="-2375" width="240" height="90" as="geometry" />
        </mxCell>
        <mxCell id="pV3P2RNTyMU5dQeBJUng-117" value="" style="html=1;jettySize=18;whiteSpace=wrap;fontSize=13.3;fontColor=#333333;fontStyle=1;strokeColor=#2D7600;strokeOpacity=100;strokeWidth=0.8;rounded=1;arcSize=12;edgeStyle=orthogonalEdgeStyle;startArrow=none;endArrow=block;endFill=1;exitX=0.007;exitY=0.5;exitPerimeter=0;entryX=0.5;entryY=-0.008;entryPerimeter=0;lucidId=_rOK_1ZisDma;fillColor=#60a917;" parent="1" source="pV3P2RNTyMU5dQeBJUng-111" target="pV3P2RNTyMU5dQeBJUng-116" edge="1">
          <mxGeometry width="100" height="100" relative="1" as="geometry">
            <Array as="points" />
          </mxGeometry>
        </mxCell>
        <mxCell id="pV3P2RNTyMU5dQeBJUng-118" value="Yes" style="text;html=1;resizable=0;labelBackgroundColor=default;align=center;verticalAlign=middle;fontStyle=1;fontColor=#333333;fontSize=13;" parent="pV3P2RNTyMU5dQeBJUng-117" vertex="1">
          <mxGeometry relative="1" as="geometry" />
        </mxCell>
        <mxCell id="pV3P2RNTyMU5dQeBJUng-119" value="&lt;div style=&quot;display: flex; justify-content: center; text-align: center; align-items: baseline; font-size: 0; line-height: 1.25;margin-top: -2px;&quot;&gt;&lt;span&gt;&lt;span style=&quot;font-size:23.3px;&quot;&gt;&lt;span style=&quot;font-size:23.3px;&quot;&gt;Отчищаем дисплей и выводим  &#xa;&quot;&lt;/span&gt;&lt;span style=&quot;font-size:23.3px;font-weight: bold;&quot;&gt;Failed connection&#xa;Create AP: PCDisplay&lt;/span&gt;&lt;span style=&quot;font-size:23.3px;&quot;&gt;&quot;&lt;/span&gt; &lt;/span&gt;&lt;/span&gt;&lt;/div&gt;" style="html=1;overflow=block;blockSpacing=1;whiteSpace=wrap;fontSize=13;spacing=9;rounded=1;absoluteArcSize=1;arcSize=9;strokeWidth=NaN;lucidId=gsOKrpe9bpik;" parent="1" vertex="1">
          <mxGeometry x="540" y="-2409" width="285" height="124" as="geometry" />
        </mxCell>
        <mxCell id="pV3P2RNTyMU5dQeBJUng-120" value="" style="html=1;jettySize=18;whiteSpace=wrap;fontSize=13;strokeColor=#3a414a;strokeOpacity=100;strokeWidth=0.8;rounded=1;arcSize=12;edgeStyle=orthogonalEdgeStyle;startArrow=none;endArrow=block;endFill=1;exitX=1.003;exitY=0.5;exitPerimeter=0;entryX=-0.003;entryY=0.5;entryPerimeter=0;lucidId=OuOKridXEsW-;" parent="1" source="pV3P2RNTyMU5dQeBJUng-116" target="pV3P2RNTyMU5dQeBJUng-119" edge="1">
          <mxGeometry width="100" height="100" relative="1" as="geometry">
            <Array as="points" />
          </mxGeometry>
        </mxCell>
        <mxCell id="pV3P2RNTyMU5dQeBJUng-121" value="&lt;div style=&quot;display: flex; justify-content: center; text-align: center; align-items: baseline; font-size: 0; line-height: 1.25;margin-top: -2px;&quot;&gt;&lt;span&gt;&lt;span style=&quot;font-size:23.3px;&quot;&gt;&lt;span style=&quot;font-size:23.3px;&quot;&gt;Переключем режим на точку доступа с названием &#xa;&lt;/span&gt;&lt;span style=&quot;font-size:23.3px;&quot;&gt;&quot;&lt;/span&gt;&lt;span style=&quot;font-size:23.3px;font-weight: bold;&quot;&gt;PCDisplay&lt;/span&gt;&lt;span style=&quot;font-size:23.3px;&quot;&gt;&quot;&lt;/span&gt;&lt;/span&gt;&lt;/span&gt;&lt;/div&gt;" style="html=1;overflow=block;blockSpacing=1;whiteSpace=wrap;fontSize=13;spacing=9;rounded=1;absoluteArcSize=1;arcSize=9;strokeWidth=NaN;lucidId=yvOK36S66gIf;" parent="1" vertex="1">
          <mxGeometry x="540" y="-2238" width="285" height="124" as="geometry" />
        </mxCell>
        <mxCell id="pV3P2RNTyMU5dQeBJUng-122" value="Запускаем Web-интерфейс" style="html=1;overflow=block;blockSpacing=1;whiteSpace=wrap;fontSize=23.3;spacing=9;rounded=1;absoluteArcSize=1;arcSize=9;strokeWidth=NaN;lucidId=vxOKmK.OKwFu;" parent="1" vertex="1">
          <mxGeometry x="180" y="-2238" width="285" height="124" as="geometry" />
        </mxCell>
        <mxCell id="pV3P2RNTyMU5dQeBJUng-123" value="" style="html=1;jettySize=18;whiteSpace=wrap;fontSize=13;strokeColor=#3a414a;strokeOpacity=100;strokeWidth=0.8;rounded=1;arcSize=12;edgeStyle=orthogonalEdgeStyle;startArrow=none;endArrow=block;endFill=1;exitX=0.5;exitY=1.006;exitPerimeter=0;entryX=0.5;entryY=-0.006;entryPerimeter=0;lucidId=_xOKYmqk7-CQ;" parent="1" source="pV3P2RNTyMU5dQeBJUng-119" target="pV3P2RNTyMU5dQeBJUng-121" edge="1">
          <mxGeometry width="100" height="100" relative="1" as="geometry">
            <Array as="points" />
          </mxGeometry>
        </mxCell>
        <mxCell id="pV3P2RNTyMU5dQeBJUng-124" value="" style="html=1;jettySize=18;whiteSpace=wrap;fontSize=13;strokeColor=#3a414a;strokeOpacity=100;strokeWidth=0.8;rounded=1;arcSize=12;edgeStyle=orthogonalEdgeStyle;startArrow=none;endArrow=block;endFill=1;exitX=-0.003;exitY=0.5;exitPerimeter=0;entryX=1.003;entryY=0.5;entryPerimeter=0;lucidId=gyOKsRrekQX8;" parent="1" source="pV3P2RNTyMU5dQeBJUng-121" target="pV3P2RNTyMU5dQeBJUng-122" edge="1">
          <mxGeometry width="100" height="100" relative="1" as="geometry">
            <Array as="points" />
          </mxGeometry>
        </mxCell>
        <mxCell id="pV3P2RNTyMU5dQeBJUng-125" value="Пока Web-интерфейс работает" style="html=1;overflow=block;blockSpacing=1;whiteSpace=wrap;rhombus;fontSize=16.7;spacing=3.8;rounded=1;absoluteArcSize=1;arcSize=9;strokeWidth=NaN;lucidId=pyOKV8A090Yz;" parent="1" vertex="1">
          <mxGeometry x="-583" y="-2380" width="240" height="155" as="geometry" />
        </mxCell>
        <mxCell id="pV3P2RNTyMU5dQeBJUng-126" value="" style="html=1;jettySize=18;whiteSpace=wrap;fontSize=13;strokeColor=#3a414a;strokeOpacity=100;strokeWidth=0.8;rounded=1;arcSize=12;edgeStyle=orthogonalEdgeStyle;startArrow=none;endArrow=block;endFill=1;entryX=0.5;entryY=0.004;entryPerimeter=0;lucidId=ZyOKIaDcBDFl;exitX=0;exitY=0.5;exitDx=0;exitDy=0;" parent="1" source="pV3P2RNTyMU5dQeBJUng-122" target="pV3P2RNTyMU5dQeBJUng-125" edge="1">
          <mxGeometry width="100" height="100" relative="1" as="geometry">
            <Array as="points" />
            <mxPoint x="100" y="-2175" as="sourcePoint" />
          </mxGeometry>
        </mxCell>
        <mxCell id="hEU26JRjIcSXbyBSXfCm-2" style="edgeStyle=orthogonalEdgeStyle;rounded=0;orthogonalLoop=1;jettySize=auto;html=1;exitX=0.5;exitY=1;exitDx=0;exitDy=0;" parent="1" source="pV3P2RNTyMU5dQeBJUng-127" target="hEU26JRjIcSXbyBSXfCm-1" edge="1">
          <mxGeometry relative="1" as="geometry" />
        </mxCell>
        <mxCell id="pV3P2RNTyMU5dQeBJUng-127" value="&lt;p style=&quot;line-height: 110%;&quot;&gt;&lt;span style=&quot;font-size: 14px; background-color: initial;&quot;&gt;Если пользователь нажал кнопку сохранит в Web-интерфейсе или дважды зажал на кнопку&lt;/span&gt;&lt;/p&gt;" style="html=1;overflow=block;blockSpacing=1;whiteSpace=wrap;rhombus;fontSize=16.7;spacing=3.8;rounded=1;absoluteArcSize=1;arcSize=9;strokeWidth=NaN;lucidId=_yOKg5pSIp7Z;align=center;" parent="1" vertex="1">
          <mxGeometry x="-588" y="-2190" width="250" height="175" as="geometry" />
        </mxCell>
        <mxCell id="pV3P2RNTyMU5dQeBJUng-128" value="" style="html=1;jettySize=18;whiteSpace=wrap;fontSize=13.3;fontColor=#333333;fontStyle=1;strokeColor=#2D7600;strokeOpacity=100;strokeWidth=0.8;rounded=1;arcSize=12;edgeStyle=orthogonalEdgeStyle;startArrow=none;endArrow=block;endFill=1;exitX=0.007;exitY=0.5;exitPerimeter=0;entryX=0.5;entryY=0.003;entryPerimeter=0;lucidId=uAOKg2B3TEy~;fillColor=#60a917;" parent="1" source="pV3P2RNTyMU5dQeBJUng-125" target="pV3P2RNTyMU5dQeBJUng-127" edge="1">
          <mxGeometry width="100" height="100" relative="1" as="geometry">
            <Array as="points" />
          </mxGeometry>
        </mxCell>
        <mxCell id="pV3P2RNTyMU5dQeBJUng-129" value="Yes" style="text;html=1;resizable=0;labelBackgroundColor=default;align=center;verticalAlign=middle;fontStyle=1;fontColor=#333333;fontSize=13.3;" parent="pV3P2RNTyMU5dQeBJUng-128" vertex="1">
          <mxGeometry relative="1" as="geometry" />
        </mxCell>
        <mxCell id="2pupK0KPhIwJS3LGa6dF-2" style="edgeStyle=orthogonalEdgeStyle;rounded=0;orthogonalLoop=1;jettySize=auto;html=1;exitX=1;exitY=0.5;exitDx=0;exitDy=0;entryX=0;entryY=0.5;entryDx=0;entryDy=0;" parent="1" source="pV3P2RNTyMU5dQeBJUng-130" target="2pupK0KPhIwJS3LGa6dF-1" edge="1">
          <mxGeometry relative="1" as="geometry" />
        </mxCell>
        <mxCell id="pV3P2RNTyMU5dQeBJUng-130" value="Останавливаем Web-интерфейс" style="html=1;overflow=block;blockSpacing=1;whiteSpace=wrap;fontSize=23.3;spacing=9;rounded=1;absoluteArcSize=1;arcSize=9;strokeWidth=NaN;lucidId=qBOK3L3J~DRM;" parent="1" vertex="1">
          <mxGeometry x="-810" y="-1820" width="285" height="124" as="geometry" />
        </mxCell>
        <mxCell id="pV3P2RNTyMU5dQeBJUng-131" value="" style="html=1;jettySize=18;whiteSpace=wrap;fontSize=13.3;fontColor=#333333;fontStyle=1;strokeColor=#2D7600;strokeOpacity=100;strokeWidth=0.8;rounded=1;arcSize=12;edgeStyle=orthogonalEdgeStyle;startArrow=none;endArrow=block;endFill=1;exitX=0.006;exitY=0.5;exitPerimeter=0;entryX=0.503;entryY=-0.006;entryPerimeter=0;lucidId=QBOKLJSc4OBh;fillColor=#60a917;" parent="1" source="pV3P2RNTyMU5dQeBJUng-127" target="pV3P2RNTyMU5dQeBJUng-130" edge="1">
          <mxGeometry width="100" height="100" relative="1" as="geometry">
            <Array as="points">
              <mxPoint x="-667" y="-2103" />
            </Array>
          </mxGeometry>
        </mxCell>
        <mxCell id="pV3P2RNTyMU5dQeBJUng-132" value="Yes" style="text;html=1;resizable=0;labelBackgroundColor=default;align=center;verticalAlign=middle;fontStyle=1;fontColor=#333333;fontSize=13.3;" parent="pV3P2RNTyMU5dQeBJUng-131" vertex="1">
          <mxGeometry relative="1" as="geometry" />
        </mxCell>
        <mxCell id="pV3P2RNTyMU5dQeBJUng-141" style="edgeStyle=orthogonalEdgeStyle;rounded=0;orthogonalLoop=1;jettySize=auto;html=1;exitX=1;exitY=0.5;exitDx=0;exitDy=0;fontFamily=Helvetica;fontSize=23.3;fontColor=default;" parent="1" source="pV3P2RNTyMU5dQeBJUng-133" target="pV3P2RNTyMU5dQeBJUng-137" edge="1">
          <mxGeometry relative="1" as="geometry" />
        </mxCell>
        <mxCell id="pV3P2RNTyMU5dQeBJUng-133" value="&lt;div style=&quot;display: flex; justify-content: center; text-align: center; align-items: baseline; font-size: 0; line-height: 1.25;margin-top: -2px;&quot;&gt;&lt;span&gt;&lt;span style=&quot;font-size:23.3px;&quot;&gt;&lt;span style=&quot;font-size:23.3px;&quot;&gt;Отчищаем дисплей и пишем &quot;&lt;/span&gt;&lt;span style=&quot;font-size:23.3px;font-weight: bold;&quot;&gt;Saving. . .&lt;/span&gt;&lt;span style=&quot;font-size:23.3px;&quot;&gt;&quot;&lt;/span&gt;&lt;/span&gt;&lt;/span&gt;&lt;/div&gt;" style="html=1;overflow=block;blockSpacing=1;whiteSpace=wrap;fontSize=13;spacing=9;rounded=1;absoluteArcSize=1;arcSize=9;strokeWidth=NaN;lucidId=7BOKe1WbmRt7;" parent="1" vertex="1">
          <mxGeometry y="-1820" width="285" height="124" as="geometry" />
        </mxCell>
        <mxCell id="pV3P2RNTyMU5dQeBJUng-135" style="edgeStyle=orthogonalEdgeStyle;rounded=0;orthogonalLoop=1;jettySize=auto;html=1;exitX=1;exitY=0.5;exitDx=0;exitDy=0;entryX=-0.015;entryY=0.533;entryDx=0;entryDy=0;entryPerimeter=0;fillColor=#e51400;strokeColor=#B20000;strokeWidth=1;" parent="1" source="pV3P2RNTyMU5dQeBJUng-91" target="pV3P2RNTyMU5dQeBJUng-102" edge="1">
          <mxGeometry relative="1" as="geometry" />
        </mxCell>
        <mxCell id="pV3P2RNTyMU5dQeBJUng-136" value="No" style="edgeLabel;html=1;align=center;verticalAlign=middle;resizable=0;points=[];fontColor=#121212;fontStyle=1;fontSize=13;" parent="pV3P2RNTyMU5dQeBJUng-135" vertex="1" connectable="0">
          <mxGeometry x="0.0306" relative="1" as="geometry">
            <mxPoint as="offset" />
          </mxGeometry>
        </mxCell>
        <mxCell id="pV3P2RNTyMU5dQeBJUng-139" style="edgeStyle=orthogonalEdgeStyle;rounded=0;orthogonalLoop=1;jettySize=auto;html=1;exitX=1;exitY=0.5;exitDx=0;exitDy=0;fontFamily=Helvetica;fontSize=23.3;fontColor=default;" parent="1" source="pV3P2RNTyMU5dQeBJUng-137" target="pV3P2RNTyMU5dQeBJUng-138" edge="1">
          <mxGeometry relative="1" as="geometry" />
        </mxCell>
        <mxCell id="pV3P2RNTyMU5dQeBJUng-137" value="&lt;div style=&quot;display: flex; justify-content: center; text-align: center; align-items: baseline; line-height: 1.25; margin-top: -2px;&quot;&gt;&lt;span style=&quot;font-size: 23.3px;&quot;&gt;Ждем 2 секунды и перезагружаем контролер&amp;nbsp;&lt;/span&gt;&lt;/div&gt;" style="html=1;overflow=block;blockSpacing=1;whiteSpace=wrap;fontSize=13;spacing=9;rounded=1;absoluteArcSize=1;arcSize=9;strokeWidth=NaN;lucidId=7BOKe1WbmRt7;" parent="1" vertex="1">
          <mxGeometry x="340" y="-1820" width="285" height="124" as="geometry" />
        </mxCell>
        <mxCell id="pV3P2RNTyMU5dQeBJUng-138" value="End" style="rounded=1;whiteSpace=wrap;html=1;fontSize=23.3;fillColor=#d7faf5;fontColor=default;strokeColor=#unset;strokeWidth=NaN;align=center;verticalAlign=middle;spacing=3.8;arcSize=9;fontFamily=Helvetica;" parent="1" vertex="1">
          <mxGeometry x="700" y="-1788" width="120" height="60" as="geometry" />
        </mxCell>
        <mxCell id="pV3P2RNTyMU5dQeBJUng-149" style="edgeStyle=orthogonalEdgeStyle;rounded=0;orthogonalLoop=1;jettySize=auto;html=1;exitX=0.5;exitY=1;exitDx=0;exitDy=0;entryX=0.5;entryY=0;entryDx=0;entryDy=0;fontFamily=Helvetica;fontSize=23.3;fontColor=default;" parent="1" source="pV3P2RNTyMU5dQeBJUng-146" target="pV3P2RNTyMU5dQeBJUng-147" edge="1">
          <mxGeometry relative="1" as="geometry" />
        </mxCell>
        <mxCell id="pV3P2RNTyMU5dQeBJUng-146" value="&lt;div style=&quot;display: flex; justify-content: center; text-align: center; align-items: baseline; font-size: 0; line-height: 1.25;margin-top: -2px;&quot;&gt;&lt;span&gt;&lt;span style=&quot;font-size:23.3px;&quot;&gt;&lt;span style=&quot;font-size:23.3px;&quot;&gt;Отчищаем дисплей и выводим &quot;&lt;b&gt;WiFi connected&lt;br&gt;IP:(IP микроконтроллера)&lt;/b&gt;&quot;&lt;/span&gt;&lt;/span&gt;&lt;/span&gt;&lt;/div&gt;" style="html=1;overflow=block;blockSpacing=1;whiteSpace=wrap;fontSize=13;spacing=9;rounded=1;absoluteArcSize=1;arcSize=9;strokeWidth=NaN;lucidId=7BOKe1WbmRt7;" parent="1" vertex="1">
          <mxGeometry x="-1175" y="-1390" width="327.5" height="140" as="geometry" />
        </mxCell>
        <mxCell id="pV3P2RNTyMU5dQeBJUng-154" style="edgeStyle=orthogonalEdgeStyle;rounded=0;orthogonalLoop=1;jettySize=auto;html=1;exitX=0.5;exitY=1;exitDx=0;exitDy=0;fontFamily=Helvetica;fontSize=23.3;fontColor=default;" parent="1" source="pV3P2RNTyMU5dQeBJUng-147" target="pV3P2RNTyMU5dQeBJUng-150" edge="1">
          <mxGeometry relative="1" as="geometry" />
        </mxCell>
        <mxCell id="pV3P2RNTyMU5dQeBJUng-147" value="&lt;div style=&quot;display: flex; justify-content: center; text-align: center; align-items: baseline; line-height: 1.25; margin-top: -2px;&quot;&gt;&lt;span style=&quot;font-size: 23.3px;&quot;&gt;Настраиваем конфигурацию mqtt сервера и подключаемся к нему&lt;/span&gt;&lt;/div&gt;" style="html=1;overflow=block;blockSpacing=1;whiteSpace=wrap;fontSize=13;spacing=9;rounded=1;absoluteArcSize=1;arcSize=9;strokeWidth=NaN;lucidId=7BOKe1WbmRt7;" parent="1" vertex="1">
          <mxGeometry x="-847.5" y="-1165" width="327.5" height="140" as="geometry" />
        </mxCell>
        <mxCell id="pV3P2RNTyMU5dQeBJUng-152" style="edgeStyle=orthogonalEdgeStyle;rounded=0;orthogonalLoop=1;jettySize=auto;html=1;exitX=0;exitY=0.5;exitDx=0;exitDy=0;fontFamily=Helvetica;fontSize=13;fontColor=default;fillColor=#60a917;strokeColor=#2D7600;" parent="1" source="pV3P2RNTyMU5dQeBJUng-150" target="pV3P2RNTyMU5dQeBJUng-151" edge="1">
          <mxGeometry relative="1" as="geometry" />
        </mxCell>
        <mxCell id="pV3P2RNTyMU5dQeBJUng-153" value="&lt;font style=&quot;font-size: 13px;&quot;&gt;yes&lt;/font&gt;" style="edgeLabel;html=1;align=center;verticalAlign=middle;resizable=0;points=[];rounded=1;strokeColor=#unset;strokeWidth=NaN;spacing=3.8;arcSize=9;fontFamily=Helvetica;fontSize=23.3;fontColor=default;fillColor=#d7faf5;" parent="pV3P2RNTyMU5dQeBJUng-152" vertex="1" connectable="0">
          <mxGeometry x="-0.1874" y="3" relative="1" as="geometry">
            <mxPoint y="-10" as="offset" />
          </mxGeometry>
        </mxCell>
        <mxCell id="2pupK0KPhIwJS3LGa6dF-6" style="edgeStyle=orthogonalEdgeStyle;rounded=0;orthogonalLoop=1;jettySize=auto;html=1;exitX=1;exitY=0.5;exitDx=0;exitDy=0;entryX=0;entryY=0.5;entryDx=0;entryDy=0;fillColor=#e51400;strokeColor=#B20000;" parent="1" source="pV3P2RNTyMU5dQeBJUng-150" target="2pupK0KPhIwJS3LGa6dF-4" edge="1">
          <mxGeometry relative="1" as="geometry" />
        </mxCell>
        <mxCell id="2pupK0KPhIwJS3LGa6dF-7" value="&lt;font style=&quot;font-size: 13px;&quot;&gt;No&lt;/font&gt;" style="edgeLabel;html=1;align=center;verticalAlign=middle;resizable=0;points=[];" parent="2pupK0KPhIwJS3LGa6dF-6" vertex="1" connectable="0">
          <mxGeometry x="-0.0845" y="1" relative="1" as="geometry">
            <mxPoint y="1" as="offset" />
          </mxGeometry>
        </mxCell>
        <mxCell id="pV3P2RNTyMU5dQeBJUng-150" value="Если mqtt сервер подключен" style="html=1;overflow=block;blockSpacing=1;whiteSpace=wrap;rhombus;fontSize=16.7;spacing=3.8;rounded=1;absoluteArcSize=1;arcSize=9;strokeWidth=NaN;lucidId=_oOKDy8q7pu4;" parent="1" vertex="1">
          <mxGeometry x="-803.75" y="-965" width="240" height="155" as="geometry" />
        </mxCell>
        <mxCell id="2pupK0KPhIwJS3LGa6dF-19" style="edgeStyle=orthogonalEdgeStyle;rounded=0;orthogonalLoop=1;jettySize=auto;html=1;exitX=0;exitY=0.5;exitDx=0;exitDy=0;" parent="1" source="pV3P2RNTyMU5dQeBJUng-151" target="2pupK0KPhIwJS3LGa6dF-17" edge="1">
          <mxGeometry relative="1" as="geometry" />
        </mxCell>
        <mxCell id="pV3P2RNTyMU5dQeBJUng-151" value="&lt;div style=&quot;display: flex; justify-content: center; text-align: center; align-items: baseline; line-height: 1.25; margin-top: -2px;&quot;&gt;&lt;span style=&quot;font-size: 23.3px;&quot;&gt;Выводим на второй строке дисплея &quot;&lt;b&gt;MQTT connected&lt;/b&gt;&quot;&lt;/span&gt;&lt;/div&gt;" style="html=1;overflow=block;blockSpacing=1;whiteSpace=wrap;fontSize=13;spacing=9;rounded=1;absoluteArcSize=1;arcSize=9;strokeWidth=NaN;lucidId=7BOKe1WbmRt7;" parent="1" vertex="1">
          <mxGeometry x="-1240" y="-957.5" width="327.5" height="140" as="geometry" />
        </mxCell>
        <mxCell id="2pupK0KPhIwJS3LGa6dF-3" style="edgeStyle=orthogonalEdgeStyle;rounded=0;orthogonalLoop=1;jettySize=auto;html=1;exitX=1;exitY=0.5;exitDx=0;exitDy=0;" parent="1" source="2pupK0KPhIwJS3LGa6dF-1" target="pV3P2RNTyMU5dQeBJUng-133" edge="1">
          <mxGeometry relative="1" as="geometry" />
        </mxCell>
        <mxCell id="2pupK0KPhIwJS3LGa6dF-1" value="&lt;div style=&quot;display: flex; justify-content: center; text-align: center; align-items: baseline; line-height: 1.25; margin-top: -2px;&quot;&gt;&lt;span style=&quot;font-size: 23.3px;&quot;&gt;Запоминаем в Flash память все данные с формы интерфейса&lt;/span&gt;&lt;span style=&quot;font-size: 23.3px;&quot;&gt;&lt;br&gt;&lt;/span&gt;&lt;span style=&quot;font-size: 23.3px;&quot;&gt;&lt;br&gt;&lt;/span&gt;&lt;/div&gt;" style="html=1;overflow=block;blockSpacing=1;whiteSpace=wrap;fontSize=13;spacing=9;rounded=1;absoluteArcSize=1;arcSize=9;strokeWidth=NaN;lucidId=7BOKe1WbmRt7;" parent="1" vertex="1">
          <mxGeometry x="-400" y="-1820" width="285" height="124" as="geometry" />
        </mxCell>
        <mxCell id="2pupK0KPhIwJS3LGa6dF-16" style="edgeStyle=orthogonalEdgeStyle;rounded=0;orthogonalLoop=1;jettySize=auto;html=1;exitX=1;exitY=0.5;exitDx=0;exitDy=0;entryX=0;entryY=0.5;entryDx=0;entryDy=0;" parent="1" source="2pupK0KPhIwJS3LGa6dF-4" target="2pupK0KPhIwJS3LGa6dF-14" edge="1">
          <mxGeometry relative="1" as="geometry" />
        </mxCell>
        <mxCell id="2pupK0KPhIwJS3LGa6dF-4" value="&lt;div style=&quot;display: flex; justify-content: center; text-align: center; align-items: baseline; line-height: 1.25; margin-top: -2px;&quot;&gt;&lt;span style=&quot;font-size: 23.3px;&quot;&gt;Выводим на второй строке дисплея &quot;&lt;b&gt;MQTT failed&lt;/b&gt;&quot;&lt;/span&gt;&lt;/div&gt;" style="html=1;overflow=block;blockSpacing=1;whiteSpace=wrap;fontSize=13;spacing=9;rounded=1;absoluteArcSize=1;arcSize=9;strokeWidth=NaN;lucidId=7BOKe1WbmRt7;" parent="1" vertex="1">
          <mxGeometry x="-474" y="-957.5" width="327.5" height="140" as="geometry" />
        </mxCell>
        <mxCell id="2pupK0KPhIwJS3LGa6dF-23" style="edgeStyle=orthogonalEdgeStyle;rounded=0;orthogonalLoop=1;jettySize=auto;html=1;exitX=1;exitY=0.5;exitDx=0;exitDy=0;entryX=0;entryY=0.5;entryDx=0;entryDy=0;" parent="1" source="2pupK0KPhIwJS3LGa6dF-10" target="2pupK0KPhIwJS3LGa6dF-22" edge="1">
          <mxGeometry relative="1" as="geometry" />
        </mxCell>
        <mxCell id="2pupK0KPhIwJS3LGa6dF-10" value="&lt;div style=&quot;display: flex; justify-content: center; text-align: center; align-items: baseline; line-height: 1.25; margin-top: -2px;&quot;&gt;&lt;span style=&quot;font-size: 23.3px;&quot;&gt;Запускаем веб - интерфейс&lt;/span&gt;&lt;/div&gt;" style="html=1;overflow=block;blockSpacing=1;whiteSpace=wrap;fontSize=13;spacing=9;rounded=1;absoluteArcSize=1;arcSize=9;strokeWidth=NaN;lucidId=7BOKe1WbmRt7;" parent="1" vertex="1">
          <mxGeometry x="-838.75" y="-550" width="327.5" height="140" as="geometry" />
        </mxCell>
        <mxCell id="2pupK0KPhIwJS3LGa6dF-21" style="edgeStyle=orthogonalEdgeStyle;rounded=0;orthogonalLoop=1;jettySize=auto;html=1;exitX=1;exitY=0.5;exitDx=0;exitDy=0;entryX=0.5;entryY=0;entryDx=0;entryDy=0;" parent="1" source="2pupK0KPhIwJS3LGa6dF-14" target="2pupK0KPhIwJS3LGa6dF-10" edge="1">
          <mxGeometry relative="1" as="geometry" />
        </mxCell>
        <mxCell id="2pupK0KPhIwJS3LGa6dF-14" value="&lt;div style=&quot;display: flex; justify-content: center; text-align: center; align-items: baseline; line-height: 1.25; margin-top: -2px;&quot;&gt;&lt;span style=&quot;font-size: 23.3px;&quot;&gt;Переключаем флаг &lt;b&gt;MQTT_state &lt;/b&gt;на false&lt;/span&gt;&lt;span style=&quot;font-size: 23.3px;&quot;&gt;&lt;br&gt;&lt;/span&gt;&lt;/div&gt;" style="html=1;overflow=block;blockSpacing=1;whiteSpace=wrap;fontSize=13;spacing=9;rounded=1;absoluteArcSize=1;arcSize=9;strokeWidth=NaN;lucidId=7BOKe1WbmRt7;" parent="1" vertex="1">
          <mxGeometry x="-103.75000000000001" y="-957.5" width="327.5" height="140" as="geometry" />
        </mxCell>
        <mxCell id="2pupK0KPhIwJS3LGa6dF-20" style="edgeStyle=orthogonalEdgeStyle;rounded=0;orthogonalLoop=1;jettySize=auto;html=1;exitX=0;exitY=0.5;exitDx=0;exitDy=0;entryX=0.5;entryY=0;entryDx=0;entryDy=0;" parent="1" source="2pupK0KPhIwJS3LGa6dF-17" target="2pupK0KPhIwJS3LGa6dF-10" edge="1">
          <mxGeometry relative="1" as="geometry" />
        </mxCell>
        <mxCell id="2pupK0KPhIwJS3LGa6dF-17" value="&lt;div style=&quot;display: flex; justify-content: center; text-align: center; align-items: baseline; line-height: 1.25; margin-top: -2px;&quot;&gt;&lt;span style=&quot;font-size: 23.3px;&quot;&gt;Переключаем флаг &lt;b&gt;MQTT_state &lt;/b&gt;на true&lt;/span&gt;&lt;span style=&quot;font-size: 23.3px;&quot;&gt;&lt;br&gt;&lt;/span&gt;&lt;span style=&quot;font-size: 23.3px;&quot;&gt;&lt;br&gt;&lt;/span&gt;&lt;/div&gt;" style="html=1;overflow=block;blockSpacing=1;whiteSpace=wrap;fontSize=13;spacing=9;rounded=1;absoluteArcSize=1;arcSize=9;strokeWidth=NaN;lucidId=7BOKe1WbmRt7;" parent="1" vertex="1">
          <mxGeometry x="-1630" y="-957.5" width="327.5" height="140" as="geometry" />
        </mxCell>
        <mxCell id="2pupK0KPhIwJS3LGa6dF-25" style="edgeStyle=orthogonalEdgeStyle;rounded=0;orthogonalLoop=1;jettySize=auto;html=1;exitX=1;exitY=0.5;exitDx=0;exitDy=0;entryX=0;entryY=0.5;entryDx=0;entryDy=0;" parent="1" source="2pupK0KPhIwJS3LGa6dF-22" target="2pupK0KPhIwJS3LGa6dF-24" edge="1">
          <mxGeometry relative="1" as="geometry" />
        </mxCell>
        <mxCell id="2pupK0KPhIwJS3LGa6dF-22" value="&lt;div style=&quot;display: flex; justify-content: center; text-align: center; align-items: baseline; line-height: 1.25; margin-top: -2px;&quot;&gt;&lt;span style=&quot;font-size: 23.3px;&quot;&gt;Отчищаем дисплей&lt;/span&gt;&lt;span style=&quot;font-size: 23.3px;&quot;&gt;&lt;br&gt;&lt;/span&gt;&lt;/div&gt;" style="html=1;overflow=block;blockSpacing=1;whiteSpace=wrap;fontSize=13;spacing=9;rounded=1;absoluteArcSize=1;arcSize=9;strokeWidth=NaN;lucidId=7BOKe1WbmRt7;" parent="1" vertex="1">
          <mxGeometry x="-400" y="-550" width="327.5" height="140" as="geometry" />
        </mxCell>
        <mxCell id="2pupK0KPhIwJS3LGa6dF-24" value="" style="ellipse;whiteSpace=wrap;html=1;aspect=fixed;fillColor=#647687;fontColor=#ffffff;strokeColor=#314354;" parent="1" vertex="1">
          <mxGeometry x="45" y="-530" width="100" height="100" as="geometry" />
        </mxCell>
        <mxCell id="2pupK0KPhIwJS3LGa6dF-26" value="" style="ellipse;whiteSpace=wrap;html=1;aspect=fixed;fillColor=#647687;fontColor=#ffffff;strokeColor=#314354;" parent="1" vertex="1">
          <mxGeometry x="1520" y="-530" width="100" height="100" as="geometry" />
        </mxCell>
        <mxCell id="hEU26JRjIcSXbyBSXfCm-3" style="edgeStyle=orthogonalEdgeStyle;rounded=0;orthogonalLoop=1;jettySize=auto;html=1;exitX=0;exitY=0.5;exitDx=0;exitDy=0;entryX=0.5;entryY=0;entryDx=0;entryDy=0;fillColor=#60a917;strokeColor=#2D7600;" parent="1" source="hEU26JRjIcSXbyBSXfCm-1" target="C9ka2wE4FZqFicosQLE0-1" edge="1">
          <mxGeometry relative="1" as="geometry">
            <Array as="points">
              <mxPoint x="-850" y="-1912" />
              <mxPoint x="-850" y="-1650" />
              <mxPoint x="-684" y="-1650" />
            </Array>
          </mxGeometry>
        </mxCell>
        <mxCell id="hEU26JRjIcSXbyBSXfCm-4" value="&lt;font style=&quot;font-size: 13px;&quot;&gt;Yes&lt;/font&gt;" style="edgeLabel;html=1;align=center;verticalAlign=middle;resizable=0;points=[];" parent="hEU26JRjIcSXbyBSXfCm-3" vertex="1" connectable="0">
          <mxGeometry x="-0.4793" y="-1" relative="1" as="geometry">
            <mxPoint as="offset" />
          </mxGeometry>
        </mxCell>
        <mxCell id="hEU26JRjIcSXbyBSXfCm-5" style="edgeStyle=orthogonalEdgeStyle;rounded=0;orthogonalLoop=1;jettySize=auto;html=1;exitX=0.5;exitY=1;exitDx=0;exitDy=0;entryX=0.5;entryY=0;entryDx=0;entryDy=0;" parent="1" source="hEU26JRjIcSXbyBSXfCm-1" target="pV3P2RNTyMU5dQeBJUng-125" edge="1">
          <mxGeometry relative="1" as="geometry">
            <Array as="points">
              <mxPoint x="-463" y="-1830" />
              <mxPoint x="-290" y="-1830" />
              <mxPoint x="-290" y="-2410" />
              <mxPoint x="-463" y="-2410" />
            </Array>
          </mxGeometry>
        </mxCell>
        <mxCell id="hEU26JRjIcSXbyBSXfCm-1" value="Если пользователь дважды нажал на кнопку" style="html=1;overflow=block;blockSpacing=1;whiteSpace=wrap;rhombus;fontSize=16.7;spacing=3.8;rounded=1;absoluteArcSize=1;arcSize=9;strokeWidth=NaN;lucidId=pyOKV8A090Yz;" parent="1" vertex="1">
          <mxGeometry x="-583" y="-1990" width="240" height="155" as="geometry" />
        </mxCell>
        <mxCell id="C9ka2wE4FZqFicosQLE0-5" style="edgeStyle=orthogonalEdgeStyle;rounded=0;orthogonalLoop=1;jettySize=auto;html=1;exitX=0;exitY=0.5;exitDx=0;exitDy=0;entryX=0.5;entryY=0;entryDx=0;entryDy=0;fillColor=#60a917;strokeColor=#2D7600;" edge="1" parent="1" source="C9ka2wE4FZqFicosQLE0-1" target="pV3P2RNTyMU5dQeBJUng-146">
          <mxGeometry relative="1" as="geometry" />
        </mxCell>
        <mxCell id="C9ka2wE4FZqFicosQLE0-7" value="&lt;font style=&quot;font-size: 13px;&quot;&gt;Yes&lt;/font&gt;" style="edgeLabel;html=1;align=center;verticalAlign=middle;resizable=0;points=[];" vertex="1" connectable="0" parent="C9ka2wE4FZqFicosQLE0-5">
          <mxGeometry x="-0.4108" y="2" relative="1" as="geometry">
            <mxPoint y="1" as="offset" />
          </mxGeometry>
        </mxCell>
        <mxCell id="C9ka2wE4FZqFicosQLE0-6" style="edgeStyle=orthogonalEdgeStyle;rounded=0;orthogonalLoop=1;jettySize=auto;html=1;exitX=1;exitY=0.5;exitDx=0;exitDy=0;entryX=0.5;entryY=0;entryDx=0;entryDy=0;fillColor=#e51400;strokeColor=#B20000;" edge="1" parent="1" source="C9ka2wE4FZqFicosQLE0-1" target="C9ka2wE4FZqFicosQLE0-3">
          <mxGeometry relative="1" as="geometry" />
        </mxCell>
        <mxCell id="C9ka2wE4FZqFicosQLE0-8" value="&lt;font style=&quot;font-size: 13px;&quot;&gt;No&lt;/font&gt;" style="edgeLabel;html=1;align=center;verticalAlign=middle;resizable=0;points=[];" vertex="1" connectable="0" parent="C9ka2wE4FZqFicosQLE0-6">
          <mxGeometry x="-0.4672" y="4" relative="1" as="geometry">
            <mxPoint y="1" as="offset" />
          </mxGeometry>
        </mxCell>
        <mxCell id="C9ka2wE4FZqFicosQLE0-1" value="Если WiFi подключен" style="html=1;overflow=block;blockSpacing=1;whiteSpace=wrap;rhombus;fontSize=16.7;spacing=3.8;rounded=1;absoluteArcSize=1;arcSize=9;strokeWidth=NaN;lucidId=_oOKDy8q7pu4;" vertex="1" parent="1">
          <mxGeometry x="-803.75" y="-1580" width="240" height="155" as="geometry" />
        </mxCell>
        <mxCell id="C9ka2wE4FZqFicosQLE0-4" style="edgeStyle=orthogonalEdgeStyle;rounded=0;orthogonalLoop=1;jettySize=auto;html=1;exitX=0.5;exitY=1;exitDx=0;exitDy=0;entryX=0.5;entryY=0;entryDx=0;entryDy=0;" edge="1" parent="1" source="C9ka2wE4FZqFicosQLE0-3" target="pV3P2RNTyMU5dQeBJUng-147">
          <mxGeometry relative="1" as="geometry" />
        </mxCell>
        <mxCell id="C9ka2wE4FZqFicosQLE0-3" value="&lt;div style=&quot;display: flex; justify-content: center; text-align: center; align-items: baseline; font-size: 0; line-height: 1.25;margin-top: -2px;&quot;&gt;&lt;span&gt;&lt;span style=&quot;font-size:23.3px;&quot;&gt;&lt;span style=&quot;font-size:23.3px;&quot;&gt;Отчищаем дисплей и выводим &quot;&lt;b&gt;WiFi disconnected&lt;/b&gt;&quot;&lt;/span&gt;&lt;/span&gt;&lt;/span&gt;&lt;/div&gt;" style="html=1;overflow=block;blockSpacing=1;whiteSpace=wrap;fontSize=13;spacing=9;rounded=1;absoluteArcSize=1;arcSize=9;strokeWidth=NaN;lucidId=7BOKe1WbmRt7;" vertex="1" parent="1">
          <mxGeometry x="-511.25" y="-1390" width="351.25" height="140" as="geometry" />
        </mxCell>
      </root>
    </mxGraphModel>
  </diagram>
</mxfile>
